<svg width="21" height="21" viewBox="0 0 21 21" fill="none" xmlns="http://www.w3.org/2000/svg">
<path d="M4.70587 1.25359L4.97306 1.48427L10.9042 7.41622L16.8339 1.49076C17.7643 0.560497 19.2728 0.560497 20.2032 1.49076C21.049 2.33645 21.1259 3.65982 20.4339 4.59237L20.2032 4.85954L14.2746 10.7861L20.2081 16.7201C21.1384 17.6505 21.1383 19.1587 20.2078 20.0889C19.3619 20.9345 18.0383 21.0112 17.1057 20.3192L16.8385 20.0885L10.9074 14.1528L4.98083 20.0795C4.05042 21.0097 2.54192 21.0097 1.61151 20.0795C0.765683 19.2338 0.68879 17.9104 1.38083 16.9779L1.61151 16.7107L7.53696 10.7829L1.60339 4.85269C0.673081 3.92233 0.673237 2.41408 1.60374 1.48391C2.44966 0.638309 3.77325 0.561565 4.70587 1.25359Z" fill="#04035F"/>
</svg>
